<?xml version="1.0" encoding="UTF-8"?>
<!--Generator: Apple Native CoreSVG 341-->
<!DOCTYPE svg
PUBLIC "-//W3C//DTD SVG 1.1//EN"
       "http://www.w3.org/Graphics/SVG/1.1/DTD/svg11.dtd">
<svg version="1.1" xmlns="http://www.w3.org/2000/svg" xmlns:xlink="http://www.w3.org/1999/xlink" viewBox="0 0 3300 2200">
 <!--glyph: "", point size: 100.0, font version: "20.0d10e1", template writer version: "138.0.0"-->
 <style>.monochrome-0 {-sfsymbols-motion-group:1;-sfsymbols-layer-tags:6be6fe6f09e1c055 seal.fill}
.monochrome-1 {opacity:0.0;-sfsymbols-clear-behind:true;-sfsymbols-motion-group:0;-sfsymbols-always-pulses:true;-sfsymbols-layer-tags:57e4220ea216f97f 6be6fe6f09e1c055 percent}

.multicolor-0:tintColor {-sfsymbols-motion-group:1;-sfsymbols-layer-tags:6be6fe6f09e1c055 seal.fill}
.multicolor-1:white {-sfsymbols-motion-group:0;-sfsymbols-always-pulses:true;-sfsymbols-layer-tags:57e4220ea216f97f 6be6fe6f09e1c055 percent}

.hierarchical-0:tertiary {-sfsymbols-motion-group:1;-sfsymbols-layer-tags:6be6fe6f09e1c055 seal.fill}
.hierarchical-1:primary {-sfsymbols-motion-group:0;-sfsymbols-layer-tags:57e4220ea216f97f 6be6fe6f09e1c055 percent}

.SFSymbolsPreviewWireframe {fill:none;opacity:1.0;stroke:black;stroke-width:0.5}
</style>
 <g id="Notes">
  <rect height="2200" id="artboard" style="fill:white;opacity:1" width="3300" x="0" y="0"/>
  <line style="fill:none;stroke:black;opacity:1;stroke-width:0.5;" x1="263" x2="3036" y1="292" y2="292"/>
  <text style="stroke:none;fill:black;font-family:sans-serif;font-size:13;font-weight:bold;" transform="matrix(1 0 0 1 263 322)">Weight/Scale Variations</text>
  <text style="stroke:none;fill:black;font-family:sans-serif;font-size:13;text-anchor:middle;" transform="matrix(1 0 0 1 559.711 322)">Ultralight</text>
  <text style="stroke:none;fill:black;font-family:sans-serif;font-size:13;text-anchor:middle;" transform="matrix(1 0 0 1 856.422 322)">Thin</text>
  <text style="stroke:none;fill:black;font-family:sans-serif;font-size:13;text-anchor:middle;" transform="matrix(1 0 0 1 1153.13 322)">Light</text>
  <text style="stroke:none;fill:black;font-family:sans-serif;font-size:13;text-anchor:middle;" transform="matrix(1 0 0 1 1449.84 322)">Regular</text>
  <text style="stroke:none;fill:black;font-family:sans-serif;font-size:13;text-anchor:middle;" transform="matrix(1 0 0 1 1746.56 322)">Medium</text>
  <text style="stroke:none;fill:black;font-family:sans-serif;font-size:13;text-anchor:middle;" transform="matrix(1 0 0 1 2043.27 322)">Semibold</text>
  <text style="stroke:none;fill:black;font-family:sans-serif;font-size:13;text-anchor:middle;" transform="matrix(1 0 0 1 2339.98 322)">Bold</text>
  <text style="stroke:none;fill:black;font-family:sans-serif;font-size:13;text-anchor:middle;" transform="matrix(1 0 0 1 2636.69 322)">Heavy</text>
  <text style="stroke:none;fill:black;font-family:sans-serif;font-size:13;text-anchor:middle;" transform="matrix(1 0 0 1 2933.4 322)">Black</text>
  <line style="fill:none;stroke:black;opacity:1;stroke-width:0.5;" x1="263" x2="3036" y1="1903" y2="1903"/>
  <g transform="matrix(0.2 0 0 0.2 263 1933)">
   <path d="m46.2402 4.15039c21.7773 0 39.4531-17.627 39.4531-39.4043s-17.6758-39.4043-39.4531-39.4043c-21.7285 0-39.4043 17.627-39.4043 39.4043s17.6758 39.4043 39.4043 39.4043Zm0-7.42188c-17.6758 0-31.9336-14.3066-31.9336-31.9824s14.2578-31.9824 31.9336-31.9824 31.9824 14.3066 31.9824 31.9824-14.3066 31.9824-31.9824 31.9824Zm-17.9688-31.9824c0 2.14844 1.51367 3.61328 3.75977 3.61328h10.498v10.5957c0 2.19727 1.46484 3.71094 3.61328 3.71094 2.24609 0 3.71094-1.51367 3.71094-3.71094v-10.5957h10.5957c2.19727 0 3.71094-1.46484 3.71094-3.61328 0-2.19727-1.51367-3.71094-3.71094-3.71094h-10.5957v-10.5469c0-2.24609-1.46484-3.75977-3.71094-3.75977-2.14844 0-3.61328 1.51367-3.61328 3.75977v10.5469h-10.498c-2.24609 0-3.75977 1.51367-3.75977 3.71094Z"/>
  </g>
  <g transform="matrix(0.2 0 0 0.2 281.506 1933)">
   <path d="m58.5449 14.5508c27.4902 0 49.8047-22.3145 49.8047-49.8047s-22.3145-49.8047-49.8047-49.8047-49.8047 22.3145-49.8047 49.8047 22.3145 49.8047 49.8047 49.8047Zm0-8.30078c-22.9492 0-41.5039-18.5547-41.5039-41.5039s18.5547-41.5039 41.5039-41.5039 41.5039 18.5547 41.5039 41.5039-18.5547 41.5039-41.5039 41.5039Zm-22.6562-41.5039c0 2.39258 1.66016 4.00391 4.15039 4.00391h14.3555v14.4043c0 2.44141 1.66016 4.15039 4.05273 4.15039 2.44141 0 4.15039-1.66016 4.15039-4.15039v-14.4043h14.4043c2.44141 0 4.15039-1.61133 4.15039-4.00391 0-2.44141-1.70898-4.15039-4.15039-4.15039h-14.4043v-14.3555c0-2.49023-1.70898-4.19922-4.15039-4.19922-2.39258 0-4.05273 1.70898-4.05273 4.19922v14.3555h-14.3555c-2.49023 0-4.15039 1.70898-4.15039 4.15039Z"/>
  </g>
  <g transform="matrix(0.2 0 0 0.2 304.924 1933)">
   <path d="m74.8535 28.3203c35.1074 0 63.623-28.4668 63.623-63.5742s-28.5156-63.623-63.623-63.623-63.5742 28.5156-63.5742 63.623 28.4668 63.5742 63.5742 63.5742Zm0-9.08203c-30.127 0-54.4922-24.3652-54.4922-54.4922s24.3652-54.4922 54.4922-54.4922 54.4922 24.3652 54.4922 54.4922-24.3652 54.4922-54.4922 54.4922Zm-28.8574-54.4922c0 2.58789 1.85547 4.39453 4.58984 4.39453h19.7266v19.7754c0 2.68555 1.85547 4.58984 4.44336 4.58984 2.68555 0 4.54102-1.85547 4.54102-4.58984v-19.7754h19.7754c2.68555 0 4.58984-1.80664 4.58984-4.39453 0-2.73438-1.85547-4.58984-4.58984-4.58984h-19.7754v-19.7266c0-2.73438-1.85547-4.63867-4.54102-4.63867-2.58789 0-4.44336 1.9043-4.44336 4.63867v19.7266h-19.7266c-2.73438 0-4.58984 1.85547-4.58984 4.58984Z"/>
  </g>
  <text style="stroke:none;fill:black;font-family:sans-serif;font-size:13;font-weight:bold;" transform="matrix(1 0 0 1 263 1953)">Design Variations</text>
  <text style="stroke:none;fill:black;font-family:sans-serif;font-size:13;" transform="matrix(1 0 0 1 263 1971)">Symbols are supported in up to nine weights and three scales.</text>
  <text style="stroke:none;fill:black;font-family:sans-serif;font-size:13;" transform="matrix(1 0 0 1 263 1989)">For optimal layout with text and other symbols, vertically align</text>
  <text style="stroke:none;fill:black;font-family:sans-serif;font-size:13;" transform="matrix(1 0 0 1 263 2007)">symbols with the adjacent text.</text>
  <line style="fill:none;stroke:#00AEEF;stroke-width:0.5;opacity:1.0;" x1="776" x2="776" y1="1919" y2="1933"/>
  <g transform="matrix(0.2 0 0 0.2 776 1933)">
   <path d="m16.5527 0.78125c2.58789 0 3.85742-0.976562 4.78516-3.71094l6.29883-17.2363h28.8086l6.29883 17.2363c0.927734 2.73438 2.19727 3.71094 4.73633 3.71094 2.58789 0 4.24805-1.5625 4.24805-4.00391 0-0.830078-0.146484-1.61133-0.537109-2.63672l-22.9004-60.9863c-1.12305-2.97852-3.125-4.49219-6.25-4.49219-3.02734 0-5.07812 1.46484-6.15234 4.44336l-22.9004 61.084c-0.390625 1.02539-0.537109 1.80664-0.537109 2.63672 0 2.44141 1.5625 3.95508 4.10156 3.95508Zm13.4766-28.3691 11.8652-32.8613h0.244141l11.8652 32.8613Z"/>
  </g>
  <line style="fill:none;stroke:#00AEEF;stroke-width:0.5;opacity:1.0;" x1="792.836" x2="792.836" y1="1919" y2="1933"/>
  <text style="stroke:none;fill:black;font-family:sans-serif;font-size:13;font-weight:bold;" transform="matrix(1 0 0 1 776 1953)">Margins</text>
  <text style="stroke:none;fill:black;font-family:sans-serif;font-size:13;" transform="matrix(1 0 0 1 776 1971)">Leading and trailing margins on the left and right side of each symbol</text>
  <text style="stroke:none;fill:black;font-family:sans-serif;font-size:13;" transform="matrix(1 0 0 1 776 1989)">can be adjusted by modifying the x-location of the margin guidelines.</text>
  <text style="stroke:none;fill:black;font-family:sans-serif;font-size:13;" transform="matrix(1 0 0 1 776 2007)">Modifications are automatically applied proportionally to all</text>
  <text style="stroke:none;fill:black;font-family:sans-serif;font-size:13;" transform="matrix(1 0 0 1 776 2025)">scales and weights.</text>
  <g transform="matrix(0.2 0 0 0.2 1289 1933)">
   <path d="m14.209 9.32617 8.49609 8.54492c4.29688 4.3457 9.22852 4.05273 13.8672-1.07422l53.4668-58.9355-4.83398-4.88281-53.0762 58.3984c-1.75781 2.00195-3.41797 2.49023-5.76172 0.146484l-5.85938-5.81055c-2.34375-2.29492-1.80664-4.00391 0.195312-5.81055l57.373-54.0039-4.88281-4.83398-57.959 54.4434c-4.93164 4.58984-5.32227 9.47266-1.02539 13.8184Zm32.0801-90.9668c-2.09961 2.05078-2.24609 4.93164-1.07422 6.88477 1.17188 1.80664 3.4668 2.97852 6.68945 2.14844 7.32422-1.70898 14.9414-2.00195 22.0703 2.68555l-2.92969 7.27539c-1.70898 4.15039-0.830078 7.08008 1.85547 9.81445l11.4746 11.5723c2.44141 2.44141 4.49219 2.53906 7.32422 2.05078l5.32227-0.976562 3.32031 3.36914-0.195312 2.7832c-0.195312 2.49023 0.439453 4.39453 2.88086 6.78711l3.80859 3.71094c2.39258 2.39258 5.46875 2.53906 7.8125 0.195312l14.5508-14.5996c2.34375-2.34375 2.24609-5.32227-0.146484-7.71484l-3.85742-3.80859c-2.39258-2.39258-4.24805-3.17383-6.64062-2.97852l-2.88086 0.244141-3.22266-3.17383 1.2207-5.61523c0.634766-2.83203-0.146484-5.0293-3.07617-7.95898l-10.9863-10.9375c-16.6992-16.6016-38.8672-16.2109-53.3203-1.75781Zm7.4707 1.85547c12.1582-8.88672 28.6133-7.37305 39.7461 3.75977l12.1582 12.0605c1.17188 1.17188 1.36719 2.09961 1.02539 3.80859l-1.61133 7.42188 7.51953 7.42188 4.93164-0.292969c1.26953-0.0488281 1.66016 0.0488281 2.63672 1.02539l2.88086 2.88086-12.207 12.207-2.88086-2.88086c-0.976562-0.976562-1.12305-1.36719-1.07422-2.68555l0.341797-4.88281-7.4707-7.42188-7.61719 1.26953c-1.61133 0.341797-2.34375 0.195312-3.56445-0.976562l-10.0098-10.0098c-1.26953-1.17188-1.41602-2.00195-0.634766-3.85742l4.39453-10.4492c-7.8125-7.27539-17.9688-10.4004-28.125-7.42188-0.78125 0.195312-1.07422-0.439453-0.439453-0.976562Z"/>
  </g>
  <text style="stroke:none;fill:black;font-family:sans-serif;font-size:13;font-weight:bold;" transform="matrix(1 0 0 1 1289 1953)">Exporting</text>
  <text style="stroke:none;fill:black;font-family:sans-serif;font-size:13;" transform="matrix(1 0 0 1 1289 1971)">Symbols should be outlined when exporting to ensure the</text>
  <text style="stroke:none;fill:black;font-family:sans-serif;font-size:13;" transform="matrix(1 0 0 1 1289 1989)">design is preserved when submitting to Xcode.</text>
  <text id="template-version" style="stroke:none;fill:black;font-family:sans-serif;font-size:13;text-anchor:end;" transform="matrix(1 0 0 1 3036 1933)">Template v.6.0</text>
  <text style="stroke:none;fill:black;font-family:sans-serif;font-size:13;text-anchor:end;" transform="matrix(1 0 0 1 3036 1951)">Requires Xcode 16 or greater</text>
  <text id="descriptive-name" style="stroke:none;fill:black;font-family:sans-serif;font-size:13;text-anchor:end;" transform="matrix(1 0 0 1 3036 1969)">Generated from seal.fill</text>
  <text style="stroke:none;fill:black;font-family:sans-serif;font-size:13;text-anchor:end;" transform="matrix(1 0 0 1 3036 1987)">Typeset at 100.0 points</text>
  <text style="stroke:none;fill:black;font-family:sans-serif;font-size:13;" transform="matrix(1 0 0 1 263 726)">Small</text>
  <text style="stroke:none;fill:black;font-family:sans-serif;font-size:13;" transform="matrix(1 0 0 1 263 1156)">Medium</text>
  <text style="stroke:none;fill:black;font-family:sans-serif;font-size:13;" transform="matrix(1 0 0 1 263 1586)">Large</text>
 </g>
 <g id="Guides">
  <g id="H-reference" style="fill:#27AAE1;stroke:none;" transform="matrix(1 0 0 1 339 696)">
   <path d="M0.993654 0L3.63775 0L29.3281-67.1323L30.0303-67.1323L30.0303-70.459L28.1226-70.459ZM11.6885-24.4799L46.9815-24.4799L46.2315-26.7285L12.4385-26.7285ZM55.1196 0L57.7637 0L30.6382-70.459L29.4326-70.459L29.4326-67.1323Z"/>
  </g>
  <line id="Baseline-S" style="fill:none;stroke:#27AAE1;opacity:1;stroke-width:0.5;" x1="263" x2="3036" y1="696" y2="696"/>
  <line id="Capline-S" style="fill:none;stroke:#27AAE1;opacity:1;stroke-width:0.5;" x1="263" x2="3036" y1="625.541" y2="625.541"/>
  <g id="H-reference" style="fill:#27AAE1;stroke:none;" transform="matrix(1 0 0 1 339 1126)">
   <path d="M0.993654 0L3.63775 0L29.3281-67.1323L30.0303-67.1323L30.0303-70.459L28.1226-70.459ZM11.6885-24.4799L46.9815-24.4799L46.2315-26.7285L12.4385-26.7285ZM55.1196 0L57.7637 0L30.6382-70.459L29.4326-70.459L29.4326-67.1323Z"/>
  </g>
  <line id="Baseline-M" style="fill:none;stroke:#27AAE1;opacity:1;stroke-width:0.5;" x1="263" x2="3036" y1="1126" y2="1126"/>
  <line id="Capline-M" style="fill:none;stroke:#27AAE1;opacity:1;stroke-width:0.5;" x1="263" x2="3036" y1="1055.54" y2="1055.54"/>
  <g id="H-reference" style="fill:#27AAE1;stroke:none;" transform="matrix(1 0 0 1 339 1556)">
   <path d="M0.993654 0L3.63775 0L29.3281-67.1323L30.0303-67.1323L30.0303-70.459L28.1226-70.459ZM11.6885-24.4799L46.9815-24.4799L46.2315-26.7285L12.4385-26.7285ZM55.1196 0L57.7637 0L30.6382-70.459L29.4326-70.459L29.4326-67.1323Z"/>
  </g>
  <line id="Baseline-L" style="fill:none;stroke:#27AAE1;opacity:1;stroke-width:0.5;" x1="263" x2="3036" y1="1556" y2="1556"/>
  <line id="Capline-L" style="fill:none;stroke:#27AAE1;opacity:1;stroke-width:0.5;" x1="263" x2="3036" y1="1485.54" y2="1485.54"/>
  <line id="right-margin-Black-S" style="fill:none;stroke:#00AEEF;stroke-width:0.5;opacity:1.0;" x1="2985.35" x2="2985.35" y1="600.785" y2="720.121"/>
  <line id="left-margin-Black-S" style="fill:none;stroke:#00AEEF;stroke-width:0.5;opacity:1.0;" x1="2881.45" x2="2881.45" y1="600.785" y2="720.121"/>
  <line id="right-margin-Regular-S" style="fill:none;stroke:#00AEEF;stroke-width:0.5;opacity:1.0;" x1="1500.58" x2="1500.58" y1="600.785" y2="720.121"/>
  <line id="left-margin-Regular-S" style="fill:none;stroke:#00AEEF;stroke-width:0.5;opacity:1.0;" x1="1399.11" x2="1399.11" y1="600.785" y2="720.121"/>
  <line id="right-margin-Ultralight-S" style="fill:none;stroke:#00AEEF;stroke-width:0.5;opacity:1.0;" x1="608.014" x2="608.014" y1="600.785" y2="720.121"/>
  <line id="left-margin-Ultralight-S" style="fill:none;stroke:#00AEEF;stroke-width:0.5;opacity:1.0;" x1="511.408" x2="511.408" y1="600.785" y2="720.121"/>
 </g>
 <g id="Symbols">
  <g id="Black-S" transform="matrix(1 0 0 1 2881.45 696)">
   <path class="monochrome-0 multicolor-0:tintColor hierarchical-0:tertiary SFSymbolsPreviewWireframe" d="M29.0527-0.341797L36.8164-0.341797C37.3047-0.341797 37.5977-0.244141 37.9883 0.146484L43.457 5.61523C49.1211 11.2793 54.7852 11.2793 60.4492 5.61523L65.918 0.146484C66.3086-0.244141 66.6016-0.341797 67.0898-0.341797L74.8535-0.341797C82.8613-0.341797 86.8652-4.39453 86.8652-12.3535L86.8652-20.1172C86.8652-20.6055 87.0117-20.9473 87.3535-21.2891L92.8223-26.7578C98.4863-32.4219 98.4863-38.0859 92.8223-43.75L87.3535-49.2188C86.9629-49.6094 86.8652-49.9023 86.8652-50.3906L86.8652-58.1543C86.8652-66.1621 82.8125-70.166 74.8535-70.166L67.0898-70.166C66.6016-70.166 66.2598-70.3125 65.918-70.6543L60.4492-76.123C54.7363-81.8359 49.1211-81.8359 43.457-76.0742L37.9883-70.6543C37.6465-70.3125 37.3047-70.166 36.8164-70.166L29.0527-70.166C21.0449-70.166 17.041-66.2109 17.041-58.1543L17.041-50.3906C17.041-49.9023 16.8945-49.5605 16.5527-49.2188L11.084-43.75C5.41992-38.0859 5.41992-32.4219 11.084-26.7578L16.5527-21.2891C16.8945-20.9473 17.041-20.6055 17.041-20.1172L17.041-12.3535C17.041-4.3457 21.0938-0.341797 29.0527-0.341797Z"/>
   <path class="monochrome-1 multicolor-1:white hierarchical-1:primary SFSymbolsPreviewWireframe" d="M36.7909-32.7567C42.6377-32.7567 46.4123-36.6676 46.4123-43.2347C46.4123-49.8901 42.5814-53.5436 36.7909-53.5436C31.0279-53.5436 27.171-49.8916 27.171-43.2058C27.171-36.6112 30.9715-32.7567 36.7909-32.7567ZM36.7909-38.7173C35.5471-38.7173 35.0593-40.0569 35.0593-43.2058C35.0593-46.3043 35.5456-47.5831 36.7909-47.5831C38.0392-47.5831 38.524-46.2998 38.524-43.2058C38.524-40.0569 38.0377-38.7173 36.7909-38.7173ZM67.1167-16.9443C72.965-16.9443 76.7395-20.8536 76.7395-27.4237C76.7395-34.0762 72.9057-37.7312 67.1167-37.7312C61.3536-37.7312 57.4968-34.0777 57.4968-27.3948C57.4968-20.7972 61.2972-16.9443 67.1167-16.9443ZM67.1167-22.9048C65.8729-22.9048 65.3851-24.2444 65.3851-27.3948C65.3851-30.4918 65.8714-31.7707 67.1167-31.7707C68.365-31.7707 68.8513-30.4873 68.8513-27.3948C68.8513-24.2444 68.3635-22.9048 67.1167-22.9048ZM40.3031-17.4465C41.9908-16.4488 44.224-16.901 45.2934-18.5478L64.7299-48.0207C65.9075-49.835 65.5371-52.1305 63.6744-53.1816C61.9547-54.1503 59.9166-53.5869 58.7937-51.8883L39.3572-22.5525C38.1522-20.7381 38.4448-18.5264 40.3031-17.4465Z"/>
  </g>
  <g id="Regular-S" transform="matrix(1 0 0 1 1399.11 696)">
   <path class="monochrome-0 multicolor-0:tintColor hierarchical-0:tertiary SFSymbolsPreviewWireframe" d="M27.7344-1.5625L35.6934-1.5625C36.4258-1.5625 36.9629-1.36719 37.5-0.830078L43.1641 4.78516C48.291 9.96094 53.1738 9.91211 58.3008 4.78516L63.916-0.830078C64.4531-1.36719 65.0391-1.5625 65.7715-1.5625L73.6816-1.5625C80.9082-1.5625 84.4238-4.98047 84.4238-12.3047L84.4238-20.2148C84.4238-20.9473 84.6191-21.4844 85.1562-22.0703L90.7227-27.6855C95.8984-32.8125 95.8496-37.6953 90.7227-42.8223L85.1562-48.4375C84.6191-49.0234 84.4238-49.5605 84.4238-50.293L84.4238-58.2031C84.4238-65.4785 80.957-68.9453 73.6816-68.9453L65.7715-68.9453C65.0391-68.9453 64.4531-69.1406 63.916-69.6777L58.3008-75.293C53.125-80.4688 48.291-80.4199 43.1641-75.293L37.5-69.6777C36.9629-69.1406 36.4258-68.9453 35.6934-68.9453L27.7344-68.9453C20.459-68.9453 17.041-65.5273 17.041-58.2031L17.041-50.293C17.041-49.5605 16.8457-49.0234 16.3086-48.4375L10.6934-42.8223C5.51758-37.6953 5.56641-32.8125 10.6934-27.6855L16.3086-22.0703C16.8457-21.4844 17.041-20.9473 17.041-20.2148L17.041-12.3047C17.041-5.0293 20.459-1.5625 27.7344-1.5625Z"/>
   <path class="monochrome-1 multicolor-1:white hierarchical-1:primary SFSymbolsPreviewWireframe" d="M37.9526-34.3078C42.8973-34.3078 45.9753-37.9361 45.9753-43.8725C45.9753-49.8607 42.8592-53.352 37.9526-53.352C33.0721-53.352 29.9455-49.8468 29.9455-43.8603C29.9455-37.898 33.0339-34.3078 37.9526-34.3078ZM37.9526-38.6129C36.2392-38.6129 35.3487-40.397 35.3487-43.8603C35.3487-47.2886 36.2531-49.0469 37.9526-49.0469C39.6538-49.0469 40.5721-47.301 40.5721-43.8603C40.5721-40.397 39.6677-38.6129 37.9526-38.6129ZM63.5148-17.1191C68.4456-17.1191 71.5235-20.7613 71.5235-26.6992C71.5235-32.6859 68.4059-36.1633 63.5148-36.1633C58.6343-36.1633 55.5076-32.672 55.5076-26.6871C55.5076-20.7231 58.5961-17.1191 63.5148-17.1191ZM63.5148-21.4242C61.8013-21.4242 60.9109-23.2083 60.9109-26.6871C60.9109-30.0999 61.8152-31.8582 63.5148-31.8582C65.216-31.8582 66.1203-30.1122 66.1203-26.6871C66.1203-23.2083 65.2299-21.4242 63.5148-21.4242ZM38.5833-17.2869C39.7676-16.594 41.4122-16.8266 42.2805-18.11L63.6025-49.5183C64.5594-50.9302 64.1286-52.5572 62.856-53.2866C61.6874-53.9379 60.1973-53.6445 59.263-52.2812L37.9409-21.0031C36.958-19.5618 37.3279-18.0284 38.5833-17.2869Z"/>
  </g>
  <g id="Ultralight-S" transform="matrix(1 0 0 1 511.408 696)">
   <path class="monochrome-0 multicolor-0:tintColor hierarchical-0:tertiary SFSymbolsPreviewWireframe" d="M24.2378-4.28709L34.104-4.28709C35.0635-4.28709 35.7368-4.04637 36.4556-3.32762L43.4819 3.6045C46.9287 7.14553 49.6773 7.14211 53.1241 3.6045L60.147-3.32762C60.8658-4.04637 61.5425-4.28709 62.502-4.28709L72.3648-4.28709C77.3208-4.28709 79.2471-6.25194 79.2471-11.1694L79.2471-21.0322C79.2471-22.0371 79.5332-22.7104 80.2066-23.4326L87.1807-30.4101C90.6763-33.9023 90.6729-36.6055 87.1807-40.0977L80.2066-47.0752C79.5332-47.7974 79.2471-48.4707 79.2471-49.4756L79.2471-59.3384C79.2471-64.2525 77.3242-66.2207 72.3648-66.2207L62.502-66.2207C61.5425-66.2207 60.8658-66.4614 60.147-67.1802L53.1241-74.1123C49.6284-77.6988 46.9287-77.6953 43.4365-74.1123L36.4556-67.1802C35.7822-66.5069 35.0635-66.2207 34.104-66.2207L24.2378-66.2207C19.2783-66.2207 17.3589-64.2559 17.3589-59.3384L17.3589-49.4756C17.3589-48.4707 17.0728-47.7974 16.3994-47.0752L9.42189-40.0977C5.92627-36.6055 5.92968-33.9023 9.42189-30.4101L16.3994-23.4326C17.0728-22.7104 17.3589-22.0371 17.3589-21.0322L17.3589-11.1694C17.3589-6.25536 19.2783-4.28709 24.2378-4.28709Z"/>
   <path class="monochrome-1 multicolor-1:white hierarchical-1:primary SFSymbolsPreviewWireframe" d="M37.8586-36.2241C41.6562-36.2241 43.9606-39.4982 43.9606-44.6935C43.9606-49.8845 41.6462-53.1385 37.8586-53.1385C34.0811-53.1385 31.7522-49.8744 31.7522-44.6935C31.7522-39.4882 34.0711-36.2241 37.8586-36.2241ZM37.8586-37.952C35.2653-37.952 33.7237-40.5077 33.7237-44.6935C33.7237-48.8405 35.2754-51.4106 37.8586-51.4106C40.4274-51.4106 41.9892-48.8649 41.9892-44.6935C41.9892-40.5077 40.4375-37.952 37.8586-37.952ZM58.7633-17.3205C62.5509-17.3205 64.8553-20.6046 64.8553-25.7855C64.8553-30.9909 62.5552-34.2349 58.7633-34.2349C54.9858-34.2349 52.6569-30.9808 52.6569-25.7855C52.6569-20.5946 54.9757-17.3205 58.7633-17.3205ZM58.7633-19.0483C56.1701-19.0483 54.6284-21.6041 54.6284-25.7855C54.6284-29.9369 56.1801-32.507 58.7633-32.507C61.3321-32.507 62.8838-29.9613 62.8838-25.7855C62.8838-21.6041 61.3422-19.0483 58.7633-19.0483ZM36.6628-17.2616C37.1231-16.9992 37.7869-17.0581 38.1496-17.5986L60.1583-51.7263C60.5654-52.3068 60.3461-52.9406 59.8902-53.2274C59.45-53.4842 58.8362-53.4009 58.4435-52.8203L36.4348-18.7428C36.0177-18.1565 36.1881-17.5485 36.6628-17.2616Z"/>
  </g>
 </g>
</svg>
